{
    "asset" : {
        "generator" : "Khronos glTF Blender I/O v1.0.5",
        "version" : "2.0"
    },
    "scene" : 0,
    "scenes" : [
        {
            "name" : "Scene",
            "nodes" : [
                0,
                1,
                2
            ]
        }
    ],
    "nodes" : [
        {
            "name" : "Light",
            "rotation" : [
                0.16907575726509094,
                0.7558803558349609,
                -0.27217137813568115,
                0.570947527885437
            ],
            "translation" : [
                4.076245307922363,
                5.903861999511719,
                -1.0054539442062378
            ]
        },
        {
            "name" : "Camera",
            "rotation" : [
                0.483536034822464,
                0.33687159419059753,
                -0.20870360732078552,
                0.7804827094078064
            ],
            "translation" : [
                7.358891487121582,
                4.958309173583984,
                6.925790786743164
            ]
        },
        {
            "mesh" : 0,
            "name" : "Mug",
            "rotation" : [
                -0.636315643787384,
                0.38158348202705383,
                -0.25290852785110474,
                0.6209136247634888
            ],
            "translation" : [
                0.8390109539031982,
                0.4564593732357025,
                -0.7348374128341675
            ]
        }
    ],
    "meshes" : [
        {
            "name" : "Torus",
            "primitives" : [
                {
                    "attributes" : {
                        "POSITION" : 0,
                        "NORMAL" : 1,
                        "TEXCOORD_0" : 2
                    },
                    "indices" : 3
                }
            ]
        }
    ],
    "accessors" : [
        {
            "bufferView" : 0,
            "componentType" : 5126,
            "count" : 3168,
            "max" : [
                0.1855783462524414,
                0.46619248390197754,
                0.4301060140132904
            ],
            "min" : [
                -2.6125001907348633,
                -1.6539273262023926,
                -2.522801637649536
            ],
            "type" : "VEC3"
        },
        {
            "bufferView" : 1,
            "componentType" : 5126,
            "count" : 3168,
            "type" : "VEC3"
        },
        {
            "bufferView" : 2,
            "componentType" : 5126,
            "count" : 3168,
            "type" : "VEC2"
        },
        {
            "bufferView" : 3,
            "componentType" : 5123,
            "count" : 5268,
            "type" : "SCALAR"
        }
    ],
    "bufferViews" : [
        {
            "buffer" : 0,
            "byteLength" : 38016,
            "byteOffset" : 0
        },
        {
            "buffer" : 0,
            "byteLength" : 38016,
            "byteOffset" : 38016
        },
        {
            "buffer" : 0,
            "byteLength" : 25344,
            "byteOffset" : 76032
        },
        {
            "buffer" : 0,
            "byteLength" : 10536,
            "byteOffset" : 101376
        }
    ],
    "buffers" : [
        {
            "byteLength" : 111912,
            "uri" : "data:application/octet-stream;base64,"
        }
    ]
}
