# XSI Wavefront OBJ Export v3.0
# File Created: Tue Apr 15 14:24:53 2014
# XSI Version: 12.0.921.0
mtllib Curtain_1.mtl

o curtain_1
# Hierarchy (from self to top father)
g curtain_1

#begin 44 vertices
v 4.000000 16.273189 0.297832
v -4.000000 16.273189 0.297832
v 4.000000 -6.004284 0.297832
v -4.000000 -6.004284 0.297832
v 0.000000 16.273189 0.297832
v 0.000000 -6.004284 0.297832
v 2.000000 16.273189 0.297832
v 2.000000 -6.004284 0.297832
v -2.000000 16.273189 0.297832
v -2.000000 -6.004284 0.297832
v -3.000000 16.273189 0.920502
v -3.000000 -6.004284 0.920502
v -1.000000 16.273189 0.920502
v -1.000000 -6.004284 0.920502
v 1.000000 16.273189 0.920502
v 1.000000 -6.004284 0.920502
v 3.000000 16.273189 0.920502
v 3.000000 -6.004284 0.920502
v -4.000000 16.273189 0.297832
v 4.000000 16.273189 0.297832
v -4.000000 -6.004284 0.297832
v 4.000000 -6.004284 0.297832
v -0.000000 16.273189 0.297832
v -0.000000 -6.004284 0.297832
v -2.000000 16.273189 0.297832
v -2.000000 -6.004284 0.297832
v 2.000000 16.273189 0.297832
v 2.000000 -6.004284 0.297832
v 3.000000 16.273189 -0.324839
v 3.000000 -6.004284 -0.324839
v 1.000000 16.273189 -0.324839
v 1.000000 -6.004284 -0.324839
v -1.000000 16.273189 -0.324839
v -1.000000 -6.004284 -0.324839
v -3.000000 16.273189 -0.324839
v -3.000000 -6.004284 -0.324839
v -4.053431 17.233264 -0.356986
v -4.053431 17.230714 0.955389
v 4.053431 17.230714 0.955389
v 4.053431 15.884205 0.949233
v 4.053431 17.233264 -0.356986
v -4.053431 15.886755 -0.363142
v -4.053431 15.884205 0.949233
v 4.053431 15.886755 -0.363142
#end 44 vertices

#begin 88 normals
vn -0.528576 0.000000 0.848886
vn 0.528576 0.000000 0.848886
vn 0.528576 0.000000 0.848886
vn -0.528576 0.000000 0.848886
vn 0.528576 0.000000 0.848886
vn 0.528576 0.000000 0.848886
vn -0.528576 0.000000 0.848886
vn -0.528576 0.000000 0.848886
vn -0.528576 0.000000 0.848886
vn -0.528576 0.000000 0.848886
vn 0.528576 0.000000 0.848886
vn 0.528576 0.000000 0.848886
vn 0.528576 0.000000 0.848886
vn 0.528576 0.000000 0.848886
vn -0.528576 0.000000 0.848886
vn -0.528576 0.000000 0.848886
vn -0.528576 0.000000 0.848886
vn -0.528576 0.000000 0.848886
vn 0.528576 0.000000 0.848886
vn 0.528576 0.000000 0.848886
vn 0.528576 0.000000 0.848886
vn 0.528576 0.000000 0.848886
vn -0.528576 0.000000 0.848886
vn -0.528576 0.000000 0.848886
vn -0.528576 0.000000 0.848886
vn -0.528576 0.000000 0.848886
vn 0.528576 0.000000 0.848886
vn 0.528576 0.000000 0.848886
vn 0.528576 0.000000 0.848886
vn 0.528576 0.000000 0.848886
vn -0.528576 0.000000 0.848886
vn -0.528576 0.000000 0.848886
vn 0.528576 0.000000 -0.848886
vn -0.528576 0.000000 -0.848886
vn -0.528576 0.000000 -0.848886
vn 0.528576 0.000000 -0.848886
vn -0.528576 0.000000 -0.848886
vn -0.528576 0.000000 -0.848886
vn 0.528576 0.000000 -0.848886
vn 0.528576 0.000000 -0.848886
vn 0.528576 0.000000 -0.848886
vn 0.528576 0.000000 -0.848886
vn -0.528576 0.000000 -0.848886
vn -0.528576 0.000000 -0.848886
vn -0.528576 0.000000 -0.848886
vn -0.528576 0.000000 -0.848886
vn 0.528576 0.000000 -0.848886
vn 0.528576 0.000000 -0.848886
vn 0.528576 0.000000 -0.848886
vn 0.528576 0.000000 -0.848886
vn -0.528576 0.000000 -0.848886
vn -0.528576 0.000000 -0.848886
vn -0.528576 0.000000 -0.848886
vn -0.528576 0.000000 -0.848886
vn 0.528576 0.000000 -0.848886
vn 0.528576 0.000000 -0.848886
vn 0.528576 0.000000 -0.848886
vn 0.528576 0.000000 -0.848886
vn -0.528576 0.000000 -0.848886
vn -0.528576 0.000000 -0.848886
vn -0.528576 0.000000 -0.848886
vn -0.528576 0.000000 -0.848886
vn 0.528576 0.000000 -0.848886
vn 0.528576 0.000000 -0.848886
vn 0.000000 -0.999998 -0.001943
vn 0.000000 -0.999998 -0.001943
vn 0.000000 -0.999998 -0.001943
vn 0.000000 -0.999998 -0.001943
vn 0.000000 0.999998 0.001943
vn 0.000000 0.999998 0.001943
vn 0.000000 0.999998 0.001943
vn 0.000000 0.999998 0.001943
vn 0.000000 0.004572 -0.999990
vn 0.000000 0.004572 -0.999990
vn 0.000000 0.004572 -0.999990
vn 0.000000 0.004572 -0.999990
vn 0.000000 -0.004572 0.999990
vn 0.000000 -0.004572 0.999990
vn 0.000000 -0.004572 0.999990
vn 0.000000 -0.004572 0.999990
vn -1.000000 -0.000000 0.000000
vn -1.000000 -0.000000 0.000000
vn -1.000000 -0.000000 0.000000
vn -1.000000 -0.000000 0.000000
vn 1.000000 0.000000 -0.000000
vn 1.000000 0.000000 -0.000000
vn 1.000000 0.000000 -0.000000
vn 1.000000 0.000000 -0.000000
#end 88 vertex normals

#begin texture vertices
vt 0.693526 0.799846 0.000000
vt 0.355164 0.799846 0.000000
vt 0.693526 0.000000 0.000000
vt 0.355164 0.000000 0.000000
vt 0.524345 0.799846 0.000000
vt 0.524345 0.000000 0.000000
vt 0.608936 0.799846 0.000000
vt 0.608936 0.000000 0.000000
vt 0.439755 0.799846 0.000000
vt 0.439755 0.000000 0.000000
vt 0.397460 0.799846 0.000000
vt 0.397460 0.000000 0.000000
vt 0.482050 0.799846 0.000000
vt 0.482050 0.000000 0.000000
vt 0.566640 0.799846 0.000000
vt 0.566640 0.000000 0.000000
vt 0.651231 0.799846 0.000000
vt 0.651231 0.000000 0.000000
vt 0.338362 0.799846 0.000000
vt 0.000000 0.799846 0.000000
vt 0.338362 0.000000 0.000000
vt 0.000000 0.000000 0.000000
vt 0.169181 0.799846 0.000000
vt 0.169181 0.000000 0.000000
vt 0.253771 0.799846 0.000000
vt 0.253771 0.000000 0.000000
vt 0.084590 0.799846 0.000000
vt 0.084590 0.000000 0.000000
vt 0.042295 0.799846 0.000000
vt 0.042295 0.000000 0.000000
vt 0.126886 0.799846 0.000000
vt 0.126886 0.000000 0.000000
vt 0.211476 0.799846 0.000000
vt 0.211476 0.000000 0.000000
vt 0.296066 0.799846 0.000000
vt 0.296066 0.000000 0.000000
vt 0.705772 0.619228 0.000000
vt 0.717899 0.115241 0.000000
vt 0.705772 0.913220 0.000000
vt 0.765018 0.115303 0.000000
vt 0.705772 0.840666 0.000000
vt 0.996839 0.840666 0.000000
vt 0.717208 0.052056 0.000000
vt 0.717613 0.003712 0.000000
vt 0.996839 0.766224 0.000000
vt 0.764327 0.052326 0.000000
vt 0.996839 0.619228 0.000000
vt 0.996839 0.913220 0.000000
vt 0.717835 0.066896 0.000000
vt 0.705772 0.693670 0.000000
vt 0.705772 0.766224 0.000000
vt 0.764955 0.066958 0.000000
vt 0.996839 0.693670 0.000000
vt 0.764732 0.003983 0.000000
#end 54 texture vertices

#begin 22 faces
usemtl scene_material
f 4/4/4 12/12/18 11/11/17 2/2/1 
usemtl scene_material
f 3/3/3 1/1/2 17/17/29 18/18/30 
usemtl scene_material
f 5/5/8 6/6/7 16/16/26 15/15/25 
usemtl scene_material
f 6/6/6 5/5/5 13/13/21 14/14/22 
usemtl scene_material
f 10/10/14 9/9/13 11/11/20 12/12/19 
usemtl scene_material
f 9/9/16 10/10/15 14/14/24 13/13/23 
usemtl scene_material
f 8/8/12 7/7/11 15/15/28 16/16/27 
usemtl scene_material
f 7/7/9 8/8/10 18/18/32 17/17/31 
usemtl scene_material
f 22/22/36 30/30/50 29/29/49 20/20/33 
usemtl scene_material
f 21/21/35 19/19/34 35/35/61 36/36/62 
usemtl scene_material
f 23/23/40 24/24/39 34/34/58 33/33/57 
usemtl scene_material
f 24/24/38 23/23/37 31/31/53 32/32/54 
usemtl scene_material
f 28/28/46 27/27/45 29/29/52 30/30/51 
usemtl scene_material
f 27/27/48 28/28/47 32/32/56 31/31/55 
usemtl scene_material
f 26/26/44 25/25/43 33/33/60 34/34/59 
usemtl scene_material
f 25/25/41 26/26/42 36/36/64 35/35/63 
usemtl scene_material
f 40/45/68 43/51/67 42/50/66 44/53/65 
usemtl scene_material
f 38/41/72 39/42/71 41/48/70 37/39/69 
usemtl scene_material
f 44/53/76 42/50/75 37/37/74 41/47/73 
usemtl scene_material
f 39/42/80 38/41/79 43/51/78 40/45/77 
usemtl scene_material
f 38/40/84 37/38/83 42/49/82 43/52/81 
usemtl scene_material
f 40/44/88 44/54/87 41/46/86 39/43/85 
#end 22 faces
