# XSI Wavefront OBJ Export v3.0
# File Created: Tue Apr 15 14:26:48 2014
# XSI Version: 12.0.921.0
mtllib Table.mtl

o table
# Hierarchy (from self to top father)
g table

#begin 40 vertices
v -5.380704 -4.904960 -4.840136
v -5.380704 -1.604485 -4.840136
v -4.702541 -1.604485 -4.840136
v -4.702541 -4.904960 -4.840136
v -4.702541 -4.904960 -4.292843
v -5.380704 -4.904960 -4.292843
v -5.380704 -1.604485 -4.292843
v -4.702541 -1.604485 -4.292843
v -5.380704 -4.904960 2.330438
v -5.380704 -1.604485 2.330438
v -4.702541 -1.604485 2.330438
v -4.702541 -4.904960 2.330438
v -4.702541 -4.904960 2.877731
v -5.380704 -4.904960 2.877731
v -5.380704 -1.604485 2.877731
v -4.702541 -1.604485 2.877731
v 4.729339 -4.904960 2.330438
v 4.729339 -1.604485 2.330438
v 5.407502 -1.604485 2.330438
v 5.407502 -4.904960 2.330438
v 5.407502 -4.904960 2.877731
v 4.729339 -4.904960 2.877731
v 4.729339 -1.604485 2.877731
v 5.407502 -1.604485 2.877731
v 4.729339 -4.904960 -4.840136
v 4.729339 -1.604485 -4.840136
v 5.407502 -1.604485 -4.840136
v 5.407502 -4.904960 -4.840136
v 5.407502 -4.904960 -4.292843
v 4.729339 -4.904960 -4.292843
v 4.729339 -1.604485 -4.292843
v 5.407502 -1.604485 -4.292843
v -5.602257 -1.616945 -5.051005
v 5.602257 -1.616945 -5.051005
v -5.602257 -1.098077 -5.051005
v 5.602257 -1.098077 -5.051005
v -5.602257 -1.616945 3.100414
v 5.602257 -1.616945 3.100414
v -5.602257 -1.098077 3.100414
v 5.602257 -1.098077 3.100414
#end 40 vertices

#begin 104 normals
vn 0.000000 -0.000000 -1.000000
vn 0.000000 -0.000000 -1.000000
vn 0.000000 -0.000000 -1.000000
vn 0.000000 -0.000000 -1.000000
vn -0.000000 -1.000000 0.000000
vn -0.000000 -1.000000 0.000000
vn -0.000000 -1.000000 0.000000
vn -0.000000 -1.000000 0.000000
vn -1.000000 0.000000 -0.000000
vn -1.000000 0.000000 -0.000000
vn -1.000000 0.000000 -0.000000
vn -1.000000 0.000000 -0.000000
vn 1.000000 0.000000 0.000000
vn 1.000000 0.000000 0.000000
vn 1.000000 0.000000 0.000000
vn 1.000000 0.000000 0.000000
vn 0.000000 0.000000 1.000000
vn 0.000000 0.000000 1.000000
vn 0.000000 0.000000 1.000000
vn 0.000000 0.000000 1.000000
vn 0.000000 -0.000000 -1.000000
vn 0.000000 -0.000000 -1.000000
vn 0.000000 -0.000000 -1.000000
vn 0.000000 -0.000000 -1.000000
vn -0.000000 -1.000000 0.000000
vn -0.000000 -1.000000 0.000000
vn -0.000000 -1.000000 0.000000
vn -0.000000 -1.000000 0.000000
vn -1.000000 0.000000 -0.000000
vn -1.000000 0.000000 -0.000000
vn -1.000000 0.000000 -0.000000
vn -1.000000 0.000000 -0.000000
vn 1.000000 0.000000 0.000000
vn 1.000000 0.000000 0.000000
vn 1.000000 0.000000 0.000000
vn 1.000000 0.000000 0.000000
vn 0.000000 0.000000 1.000000
vn 0.000000 0.000000 1.000000
vn 0.000000 0.000000 1.000000
vn 0.000000 0.000000 1.000000
vn 0.000000 -0.000000 -1.000000
vn 0.000000 -0.000000 -1.000000
vn 0.000000 -0.000000 -1.000000
vn 0.000000 -0.000000 -1.000000
vn -0.000000 -1.000000 0.000000
vn -0.000000 -1.000000 0.000000
vn -0.000000 -1.000000 0.000000
vn -0.000000 -1.000000 0.000000
vn -1.000000 0.000000 -0.000000
vn -1.000000 0.000000 -0.000000
vn -1.000000 0.000000 -0.000000
vn -1.000000 0.000000 -0.000000
vn 1.000000 0.000000 0.000000
vn 1.000000 0.000000 0.000000
vn 1.000000 0.000000 0.000000
vn 1.000000 0.000000 0.000000
vn 0.000000 0.000000 1.000000
vn 0.000000 0.000000 1.000000
vn 0.000000 0.000000 1.000000
vn 0.000000 0.000000 1.000000
vn 0.000000 -0.000000 -1.000000
vn 0.000000 -0.000000 -1.000000
vn 0.000000 -0.000000 -1.000000
vn 0.000000 -0.000000 -1.000000
vn -0.000000 -1.000000 0.000000
vn -0.000000 -1.000000 0.000000
vn -0.000000 -1.000000 0.000000
vn -0.000000 -1.000000 0.000000
vn -1.000000 0.000000 -0.000000
vn -1.000000 0.000000 -0.000000
vn -1.000000 0.000000 -0.000000
vn -1.000000 0.000000 -0.000000
vn 1.000000 0.000000 0.000000
vn 1.000000 0.000000 0.000000
vn 1.000000 0.000000 0.000000
vn 1.000000 0.000000 0.000000
vn 0.000000 0.000000 1.000000
vn 0.000000 0.000000 1.000000
vn 0.000000 0.000000 1.000000
vn 0.000000 0.000000 1.000000
vn 0.000000 -0.000000 -1.000000
vn 0.000000 -0.000000 -1.000000
vn 0.000000 -0.000000 -1.000000
vn 0.000000 -0.000000 -1.000000
vn -0.000000 -1.000000 0.000000
vn -0.000000 -1.000000 0.000000
vn -0.000000 -1.000000 0.000000
vn -0.000000 -1.000000 0.000000
vn -1.000000 0.000000 -0.000000
vn -1.000000 0.000000 -0.000000
vn -1.000000 0.000000 -0.000000
vn -1.000000 0.000000 -0.000000
vn 1.000000 0.000000 0.000000
vn 1.000000 0.000000 0.000000
vn 1.000000 0.000000 0.000000
vn 1.000000 0.000000 0.000000
vn 0.000000 1.000000 0.000000
vn 0.000000 1.000000 0.000000
vn 0.000000 1.000000 0.000000
vn 0.000000 1.000000 0.000000
vn 0.000000 0.000000 1.000000
vn 0.000000 0.000000 1.000000
vn 0.000000 0.000000 1.000000
vn 0.000000 0.000000 1.000000
#end 104 vertex normals

#begin texture vertices
vt 0.017506 0.606902 0.000000
vt 0.014613 0.940005 0.000000
vt 0.073020 0.606902 0.000000
vt 0.017506 0.912836 0.000000
vt 0.073020 0.912836 0.000000
vt 0.073020 0.912836 0.000000
vt 0.077475 0.940005 0.000000
vt 0.073020 0.606902 0.000000
vt 0.077475 0.990736 0.000000
vt 0.017506 0.606902 0.000000
vt 0.073020 0.606902 0.000000
vt 0.017506 0.606902 0.000000
vt 0.014613 0.990736 0.000000
vt 0.017506 0.912836 0.000000
vt 0.073020 0.912836 0.000000
vt 0.017506 0.912836 0.000000
vt 0.017506 0.606902 0.000000
vt 0.014613 0.940005 0.000000
vt 0.073020 0.606902 0.000000
vt 0.017506 0.912836 0.000000
vt 0.073020 0.912836 0.000000
vt 0.073020 0.912836 0.000000
vt 0.077475 0.940005 0.000000
vt 0.073020 0.606902 0.000000
vt 0.077475 0.990736 0.000000
vt 0.017506 0.606902 0.000000
vt 0.073020 0.606902 0.000000
vt 0.017506 0.606902 0.000000
vt 0.014613 0.990736 0.000000
vt 0.017506 0.912836 0.000000
vt 0.073020 0.912836 0.000000
vt 0.017506 0.912836 0.000000
vt 0.017506 0.606902 0.000000
vt 0.014613 0.940005 0.000000
vt 0.073020 0.606902 0.000000
vt 0.017506 0.912836 0.000000
vt 0.073020 0.912836 0.000000
vt 0.073020 0.912836 0.000000
vt 0.077475 0.940005 0.000000
vt 0.073020 0.606902 0.000000
vt 0.077475 0.990736 0.000000
vt 0.017506 0.606902 0.000000
vt 0.073020 0.606902 0.000000
vt 0.017506 0.606902 0.000000
vt 0.014613 0.990736 0.000000
vt 0.017506 0.912836 0.000000
vt 0.073020 0.912836 0.000000
vt 0.017506 0.912836 0.000000
vt 0.017506 0.606902 0.000000
vt 0.014613 0.940005 0.000000
vt 0.073020 0.606902 0.000000
vt 0.017506 0.912836 0.000000
vt 0.073020 0.912836 0.000000
vt 0.073020 0.912836 0.000000
vt 0.077475 0.940005 0.000000
vt 0.073020 0.606902 0.000000
vt 0.077475 0.990736 0.000000
vt 0.017506 0.606902 0.000000
vt 0.073020 0.606902 0.000000
vt 0.017506 0.606902 0.000000
vt 0.014613 0.990736 0.000000
vt 0.017506 0.912836 0.000000
vt 0.073020 0.912836 0.000000
vt 0.017506 0.912836 0.000000
vt 0.935557 0.886688 0.000000
vt 0.883650 0.895489 0.000000
vt 0.874857 0.936968 0.000000
vt 0.883650 0.041097 0.000000
vt 0.935557 0.032296 0.000000
vt 0.874857 0.936968 0.000000
vt 0.975123 0.886688 0.000000
vt 0.874857 0.976534 0.000000
vt 0.883650 0.895489 0.000000
vt 0.874857 0.976534 0.000000
vt 0.975123 0.032296 0.000000
vt 0.883650 0.041097 0.000000
vt 0.253276 0.936968 0.000000
vt 0.262069 0.895489 0.000000
vt 0.935557 0.886688 0.000000
vt 0.262069 0.041097 0.000000
vt 0.253276 0.936968 0.000000
vt 0.935557 0.032296 0.000000
vt 0.262069 0.895489 0.000000
vt 0.253276 0.976534 0.000000
vt 0.975123 0.886688 0.000000
vt 0.253276 0.976534 0.000000
vt 0.262069 0.041097 0.000000
vt 0.975123 0.032296 0.000000
#end 88 texture vertices

#begin 26 faces
usemtl scene_material
f 1/1/1 2/4/2 3/6/3 4/8/4 
usemtl scene_material
f 1/2/5 4/7/6 5/9/7 6/13/8 
usemtl scene_material
f 1/3/9 6/12/10 7/14/11 2/5/12 
usemtl scene_material
f 4/8/13 3/6/14 8/16/15 5/10/16 
usemtl scene_material
f 6/12/17 5/11/18 8/15/19 7/14/20 
usemtl scene_material
f 9/17/21 10/20/22 11/22/23 12/24/24 
usemtl scene_material
f 9/18/25 12/23/26 13/25/27 14/29/28 
usemtl scene_material
f 9/19/29 14/28/30 15/30/31 10/21/32 
usemtl scene_material
f 12/24/33 11/22/34 16/32/35 13/26/36 
usemtl scene_material
f 14/28/37 13/27/38 16/31/39 15/30/40 
usemtl scene_material
f 17/33/41 18/36/42 19/38/43 20/40/44 
usemtl scene_material
f 17/34/45 20/39/46 21/41/47 22/45/48 
usemtl scene_material
f 17/35/49 22/44/50 23/46/51 18/37/52 
usemtl scene_material
f 20/40/53 19/38/54 24/48/55 21/42/56 
usemtl scene_material
f 22/44/57 21/43/58 24/47/59 23/46/60 
usemtl scene_material
f 25/49/61 26/52/62 27/54/63 28/56/64 
usemtl scene_material
f 25/50/65 28/55/66 29/57/67 30/61/68 
usemtl scene_material
f 25/51/69 30/60/70 31/62/71 26/53/72 
usemtl scene_material
f 28/56/73 27/54/74 32/64/75 29/58/76 
usemtl scene_material
f 30/60/77 29/59/78 32/63/79 31/62/80 
usemtl scene_material
f 33/65/81 35/71/82 36/75/83 34/69/84 
usemtl scene_material
f 33/66/85 34/68/86 38/80/87 37/78/88 
usemtl scene_material
f 33/67/89 37/77/90 39/84/91 35/72/92 
usemtl scene_material
f 34/70/93 36/74/94 40/86/95 38/81/96 
usemtl scene_material
f 35/73/97 39/83/98 40/87/99 36/76/100 
usemtl scene_material
f 37/79/101 38/82/102 40/88/103 39/85/104 
#end 26 faces
