# XSI Wavefront OBJ Export v3.0
# File Created: Tue Apr 15 14:23:21 2014
# XSI Version: 12.0.921.0
mtllib Tv.mtl

o flat_tv
# Hierarchy (from self to top father)
g flat_tv

#begin 84 vertices
v -7.959907 -4.000000 0.082896
v -8.095432 -3.987984 0.082896
v -8.153826 -3.960098 0.082896
v -8.153826 3.904870 0.082896
v -8.129333 3.971354 0.082896
v -8.072487 4.000000 0.082896
v 8.072487 4.000000 0.082896
v 8.129333 3.971354 0.082896
v 8.153826 3.904870 0.082896
v 8.153826 -3.960098 0.082896
v 8.095432 -3.987984 0.082896
v 7.959907 -4.000000 0.082896
v -8.129333 3.971354 0.188850
v 8.129333 3.971354 0.188850
v -8.095432 -3.987984 0.188850
v 8.095432 -3.987984 0.188850
v -8.153826 -3.960098 0.188850
v -8.153826 3.904870 0.188850
v -7.894942 3.804088 0.188850
v -8.078962 3.943346 0.188850
v -7.894942 -3.804088 0.089384
v 7.894942 -3.804088 0.089384
v 7.894942 3.804088 0.089384
v -7.894942 3.804088 0.089384
v -7.959907 -4.000000 0.188850
v 7.959907 -4.000000 0.188850
v 8.078962 -3.943346 0.188850
v 7.894942 -3.804088 0.188850
v -7.894942 -3.804088 0.188850
v -8.078962 -3.943346 0.188850
v 8.153826 -3.960098 0.188850
v 8.153826 3.904870 0.188850
v 8.078962 3.943346 0.188850
v 7.894942 3.804088 0.188850
v 8.072487 4.000000 0.188850
v -8.072487 4.000000 0.188850
v -7.959907 -4.000000 0.082896
v -8.095432 -3.987984 0.082896
v -8.153826 -3.960098 0.082896
v -8.153826 3.904870 0.082896
v -8.129333 3.971354 0.082896
v -8.072487 4.000000 0.082896
v 8.072487 4.000000 0.082896
v 8.129333 3.971354 0.082896
v 8.153826 3.904870 0.082896
v 8.153826 -3.960098 0.082896
v 8.095432 -3.987984 0.082896
v 7.959907 -4.000000 0.082896
v 7.561770 -3.792113 -0.188242
v 7.688609 -3.780868 -0.188242
v 7.737827 -3.757364 -0.188242
v 7.737827 3.707673 -0.188242
v 7.716250 3.766241 -0.188242
v 7.667070 3.791024 -0.188242
v -7.667070 3.791024 -0.188242
v -7.716250 3.766241 -0.188242
v -7.737827 3.707673 -0.188242
v -7.737827 -3.757364 -0.188242
v -7.688609 -3.780868 -0.188242
v -7.561770 -3.792113 -0.188242
v 7.561737 -3.757364 -0.188242
v 7.561359 3.707673 -0.188242
v -7.556911 -3.757364 -0.188242
v -7.563148 3.707673 -0.188242
v -3.490633 -4.483611 -0.465845
v 3.490633 -4.483611 -0.465845
v -2.669728 -3.805416 -0.141175
v 2.863726 -3.998208 -0.465845
v -3.490633 -4.483611 0.594889
v 3.490633 -4.483611 0.594889
v -2.863726 -3.998208 0.594889
v 2.863726 -3.998208 0.594889
v -2.863726 -3.998208 -0.465845
v 2.766727 -3.998208 -0.171669
v -2.766727 -3.998208 0.300713
v 2.766727 -3.998208 0.300713
v -2.766727 -3.998208 -0.171669
v 2.766727 -3.863719 -0.171669
v -2.766727 -3.863719 0.300713
v 2.766727 -3.863719 0.300713
v -2.766727 -3.863719 -0.171669
v 2.669728 -3.805416 -0.141175
v -2.669728 -3.805416 0.270219
v 2.669728 -3.805416 0.270219
#end 84 vertices

#begin 264 normals
vn 0.984466 0.175574 0.000000
vn 0.984466 0.175574 0.000000
vn 0.746179 0.665746 0.000000
vn 0.746179 0.665746 0.000000
vn -0.263820 -0.964572 0.000000
vn -0.263820 -0.964572 0.000000
vn -0.044200 -0.999023 0.000000
vn -0.044200 -0.999023 0.000000
vn 0.044200 -0.999023 0.000000
vn 0.044200 -0.999023 0.000000
vn 0.263820 -0.964572 0.000000
vn 0.263820 -0.964572 0.000000
vn -0.746179 0.665746 0.000000
vn -0.746179 0.665746 0.000000
vn -0.984466 0.175574 0.000000
vn -0.984466 0.175574 0.000000
vn 0.746179 0.665746 0.000000
vn 0.746179 0.665746 0.000000
vn 0.231281 0.972887 0.000000
vn 0.231281 0.972887 0.000000
vn -0.231281 0.972887 0.000000
vn -0.231281 0.972887 0.000000
vn -0.746179 0.665746 0.000000
vn -0.746179 0.665746 0.000000
vn -0.430938 -0.902381 0.000000
vn -0.430938 -0.902381 0.000000
vn -0.263820 -0.964572 0.000000
vn -0.263820 -0.964572 0.000000
vn 0.000000 0.000000 1.000000
vn 0.000000 0.000000 1.000000
vn 0.000000 0.000000 1.000000
vn 0.000000 0.000000 1.000000
vn 0.000000 0.000000 1.000000
vn 0.000000 0.000000 1.000000
vn -0.000000 0.000000 1.000000
vn -0.000000 0.000000 1.000000
vn 0.000000 0.000000 1.000000
vn 0.000000 0.000000 1.000000
vn -0.000000 0.000000 1.000000
vn -0.000000 0.000000 1.000000
vn -0.000000 0.000000 1.000000
vn -0.000000 0.000000 1.000000
vn -0.000000 0.000000 1.000000
vn -0.000000 0.000000 1.000000
vn 0.000000 0.000000 1.000000
vn 0.000000 0.000000 1.000000
vn 0.000000 0.000000 1.000000
vn 0.000000 0.000000 1.000000
vn -0.000000 0.000000 1.000000
vn -0.000000 0.000000 1.000000
vn 0.000000 0.000000 1.000000
vn 0.000000 0.000000 1.000000
vn 0.000000 0.000000 1.000000
vn 0.000000 0.000000 1.000000
vn 0.000000 0.000000 1.000000
vn 0.000000 0.000000 1.000000
vn 0.263820 -0.964572 0.000000
vn 0.263820 -0.964572 0.000000
vn 0.430938 -0.902381 0.000000
vn 0.430938 -0.902381 0.000000
vn 0.231281 0.972887 0.000000
vn 0.231281 0.972887 0.000000
vn -0.231281 0.972887 0.000000
vn -0.231281 0.972887 0.000000
vn 1.000000 0.000000 0.000000
vn 1.000000 0.000000 0.000000
vn 0.984466 0.175574 0.000000
vn 0.984466 0.175574 0.000000
vn -0.984466 0.175574 0.000000
vn -0.984466 0.175574 0.000000
vn -1.000000 0.000000 -0.000000
vn -1.000000 0.000000 -0.000000
vn -0.000000 1.000000 0.000000
vn -0.000000 1.000000 0.000000
vn -0.000000 1.000000 0.000000
vn -0.000000 1.000000 0.000000
vn 1.000000 0.000000 0.000000
vn 1.000000 0.000000 0.000000
vn 1.000000 0.000000 0.000000
vn 1.000000 0.000000 0.000000
vn -0.000000 -1.000000 0.000000
vn -0.000000 -1.000000 0.000000
vn -0.000000 -1.000000 0.000000
vn -0.000000 -1.000000 0.000000
vn -1.000000 0.000000 0.000000
vn -1.000000 0.000000 0.000000
vn -1.000000 0.000000 0.000000
vn -1.000000 0.000000 0.000000
vn -0.000000 0.000000 1.000000
vn -0.000000 0.000000 1.000000
vn 0.000000 0.000000 1.000000
vn -0.000000 0.000000 1.000000
vn 0.000000 0.000000 1.000000
vn 0.000000 0.000000 1.000000
vn 0.000000 0.000000 1.000000
vn 0.000000 0.000000 1.000000
vn 0.000000 0.000000 1.000000
vn -0.000000 0.000000 1.000000
vn -0.000000 0.000000 1.000000
vn 0.000000 -0.000000 1.000000
vn 0.000000 0.000000 1.000000
vn 0.000000 0.000000 1.000000
vn 0.000000 0.000000 1.000000
vn 0.000000 0.000000 1.000000
vn -0.044200 -0.999023 0.000000
vn -0.044200 -0.999023 0.000000
vn 0.044200 -0.999023 0.000000
vn 0.044200 -0.999023 0.000000
vn -0.018204 -0.424679 -0.905161
vn -0.115768 -0.458490 -0.881127
vn -0.213609 -0.143621 -0.966304
vn -0.266464 0.045803 -0.962756
vn -0.260451 0.246667 -0.933446
vn -0.072551 0.359642 -0.930266
vn 0.072551 0.359642 -0.930266
vn 0.260451 0.246667 -0.933446
vn 0.266464 0.045803 -0.962756
vn 0.213609 -0.143621 -0.966304
vn 0.115768 -0.458490 -0.881127
vn 0.018204 -0.424679 -0.905161
vn 0.018204 -0.424679 -0.905161
vn -0.018204 -0.424679 -0.905161
vn -0.032971 -0.769190 -0.638168
vn 0.032971 -0.769190 -0.638168
vn 0.115768 -0.458490 -0.881127
vn 0.018204 -0.424679 -0.905161
vn 0.032971 -0.769190 -0.638168
vn 0.164029 -0.649625 -0.742349
vn 0.213609 -0.143621 -0.966304
vn 0.115768 -0.458490 -0.881127
vn 0.164029 -0.649625 -0.742349
vn 0.422522 -0.284086 -0.860680
vn 0.266464 0.045803 -0.962756
vn 0.213609 -0.143621 -0.966304
vn 0.422522 -0.284086 -0.860680
vn 0.514155 0.088379 -0.853132
vn 0.260451 0.246667 -0.933446
vn 0.266464 0.045803 -0.962756
vn 0.514155 0.088379 -0.853132
vn 0.380296 0.360169 -0.851853
vn 0.072551 0.359642 -0.930266
vn 0.260451 0.246667 -0.933446
vn 0.380296 0.360169 -0.851853
vn 0.136296 0.675632 -0.724530
vn -0.072551 0.359642 -0.930266
vn 0.072551 0.359642 -0.930266
vn 0.136296 0.675632 -0.724530
vn -0.136296 0.675632 -0.724530
vn -0.260451 0.246667 -0.933446
vn -0.072551 0.359642 -0.930266
vn -0.136296 0.675632 -0.724530
vn -0.380296 0.360169 -0.851853
vn -0.266464 0.045803 -0.962756
vn -0.260451 0.246667 -0.933446
vn -0.380296 0.360169 -0.851853
vn -0.514155 0.088379 -0.853132
vn -0.032971 -0.769190 -0.638168
vn -0.164029 -0.649625 -0.742349
vn -0.115768 -0.458490 -0.881127
vn -0.018204 -0.424679 -0.905161
vn -0.164029 -0.649625 -0.742349
vn -0.422522 -0.284086 -0.860680
vn -0.213609 -0.143621 -0.966304
vn -0.115768 -0.458490 -0.881127
vn -0.422522 -0.284086 -0.860680
vn -0.514155 0.088379 -0.853132
vn -0.266464 0.045803 -0.962756
vn -0.213609 -0.143621 -0.966304
vn -0.266464 0.045803 -0.962756
vn 0.266464 0.045803 -0.962756
vn -0.213609 -0.143621 -0.966304
vn 0.213609 -0.143621 -0.966304
vn 0.000000 0.000000 -1.000000
vn 0.000000 0.000000 -1.000000
vn 0.000000 0.000000 -1.000000
vn 0.018204 -0.424679 -0.905161
vn 0.000000 0.000000 -1.000000
vn 0.000000 0.000000 -1.000000
vn 0.000000 0.000000 -1.000000
vn 0.000000 0.000000 -1.000000
vn 0.072551 0.359642 -0.930266
vn 0.000000 0.000000 -1.000000
vn 0.000000 0.000000 -1.000000
vn 0.000000 0.000000 -1.000000
vn -0.018204 -0.424679 -0.905161
vn 0.000000 0.000000 -1.000000
vn 0.000000 0.000000 -1.000000
vn 0.000000 0.000000 -1.000000
vn 0.000000 0.000000 -1.000000
vn 0.000000 0.000000 -1.000000
vn -0.072551 0.359642 -0.930266
vn 0.000000 0.000000 -1.000000
vn 0.000000 -0.000000 -1.000000
vn 0.000000 -0.000000 -1.000000
vn 0.000000 -0.000000 -1.000000
vn 0.000000 -0.000000 -1.000000
vn -0.000000 -1.000000 0.000000
vn -0.000000 -1.000000 0.000000
vn -0.000000 -1.000000 0.000000
vn -0.000000 -1.000000 0.000000
vn -0.612217 0.790690 0.000000
vn -0.612217 0.790690 0.000000
vn -0.214283 0.976772 0.000000
vn -0.214283 0.976772 0.000000
vn 0.612217 0.790690 0.000000
vn 0.214283 0.976772 0.000000
vn 0.214283 0.976772 0.000000
vn 0.612217 0.790690 0.000000
vn -0.267312 0.963610 0.000000
vn -0.267312 0.963610 0.000000
vn 0.267312 0.963610 0.000000
vn 0.267312 0.963610 0.000000
vn 0.000000 0.000000 1.000000
vn 0.000000 0.000000 1.000000
vn 0.000000 0.000000 1.000000
vn 0.000000 0.000000 1.000000
vn -0.214283 0.976772 0.000000
vn -0.214283 0.976772 0.000000
vn 0.000000 1.000000 0.000000
vn 0.000000 1.000000 0.000000
vn -0.214283 0.976772 0.000000
vn 0.214283 0.976772 0.000000
vn 0.000000 1.000000 0.000000
vn 0.000000 1.000000 0.000000
vn 0.214283 0.976772 0.000000
vn 0.214283 0.976772 0.000000
vn 0.000000 1.000000 0.000000
vn 0.000000 1.000000 0.000000
vn 0.214283 0.976772 0.000000
vn -0.214283 0.976772 0.000000
vn 0.000000 1.000000 0.000000
vn 0.000000 1.000000 0.000000
vn -1.000000 0.000000 -0.000000
vn -1.000000 0.000000 -0.000000
vn -0.870393 0.492357 0.000000
vn -0.870393 0.492357 0.000000
vn 0.000000 0.000000 1.000000
vn 0.000000 0.000000 1.000000
vn 0.000000 0.238625 0.971112
vn 0.000000 0.238625 0.971112
vn 1.000000 0.000000 -0.000000
vn 1.000000 0.000000 -0.000000
vn 0.870393 0.492357 0.000000
vn 0.870393 0.492357 0.000000
vn 0.000000 0.000000 -1.000000
vn 0.000000 0.000000 -1.000000
vn 0.000000 0.238625 -0.971112
vn 0.000000 0.238625 -0.971112
vn -0.870393 0.492357 0.000000
vn -0.870393 0.492357 0.000000
vn -0.267312 0.963610 0.000000
vn -0.267312 0.963610 0.000000
vn 0.000000 0.238625 0.971112
vn 0.000000 0.238625 0.971112
vn 0.000000 0.463462 0.886117
vn 0.000000 0.463462 0.886117
vn 0.870393 0.492357 0.000000
vn 0.870393 0.492357 0.000000
vn 0.267312 0.963610 0.000000
vn 0.267312 0.963610 0.000000
vn 0.000000 0.238625 -0.971112
vn 0.000000 0.238625 -0.971112
vn 0.000000 0.463462 -0.886117
vn 0.000000 0.463462 -0.886117
#end 264 vertex normals

#begin texture vertices
vt 0.011133 0.000000 0.000000
vt 0.003529 0.002745 0.000000
vt 0.006577 0.005331 0.000000
vt 0.006577 0.398494 0.000000
vt 0.016184 0.402339 0.000000
vt 0.019759 0.408230 0.000000
vt 0.777328 0.408230 0.000000
vt 0.780857 0.410014 0.000000
vt 0.786059 0.406271 0.000000
vt 0.786059 0.006529 0.000000
vt 0.784218 0.003433 0.000000
vt 0.776303 0.000000 0.000000
vt 0.020243 0.398254 0.000000
vt 0.776980 0.405655 0.000000
vt 0.006857 0.007305 0.000000
vt 0.780502 0.008034 0.000000
vt 0.011806 0.009084 0.000000
vt 0.011806 0.395580 0.000000
vt 0.024442 0.393888 0.000000
vt 0.022227 0.397049 0.000000
vt 0.029538 0.019608 0.000000
vt 0.763047 0.019608 0.000000
vt 0.763047 0.388759 0.000000
vt 0.029538 0.388759 0.000000
vt 0.012649 0.005350 0.000000
vt 0.774684 0.005350 0.000000
vt 0.779316 0.009795 0.000000
vt 0.768204 0.014420 0.000000
vt 0.024442 0.014420 0.000000
vt 0.008068 0.009084 0.000000
vt 0.780543 0.009856 0.000000
vt 0.780543 0.403078 0.000000
vt 0.775101 0.404374 0.000000
vt 0.768204 0.393888 0.000000
vt 0.774640 0.403081 0.000000
vt 0.022766 0.403081 0.000000
vt 0.033233 0.972253 0.000000
vt 0.025857 0.971276 0.000000
vt 0.023618 0.969906 0.000000
vt 0.023618 0.581816 0.000000
vt 0.026544 0.578517 0.000000
vt 0.029635 0.577072 0.000000
vt 0.798169 0.577072 0.000000
vt 0.801307 0.578458 0.000000
vt 0.803887 0.581848 0.000000
vt 0.803887 0.969743 0.000000
vt 0.801468 0.971174 0.000000
vt 0.794079 0.972253 0.000000
vt 0.772476 0.955954 0.000000
vt 0.778669 0.955954 0.000000
vt 0.780125 0.952531 0.000000
vt 0.780124 0.596846 0.000000
vt 0.777993 0.593981 0.000000
vt 0.775522 0.592861 0.000000
vt 0.052173 0.592861 0.000000
vt 0.049700 0.594004 0.000000
vt 0.047379 0.596877 0.000000
vt 0.047379 0.952531 0.000000
vt 0.048652 0.955954 0.000000
vt 0.054789 0.955954 0.000000
vt 0.771507 0.952531 0.000000
vt 0.771507 0.596887 0.000000
vt 0.056051 0.952531 0.000000
vt 0.056051 0.596887 0.000000
vt 0.540046 0.450928 0.000000
vt 0.846032 0.384146 0.000000
vt 0.612482 0.457865 0.000000
vt 0.846032 0.051658 0.000000
vt 0.031936 0.450928 0.000000
vt 0.755754 0.460989 0.000000
vt 0.626480 0.512437 0.000000
vt 0.480299 0.522245 0.000000
vt 0.755690 0.498750 0.000000
vt 0.077564 0.486257 0.000000
vt 0.662982 0.459225 0.000000
vt 0.896550 0.384146 0.000000
vt 0.950946 0.402515 0.000000
vt 0.896550 0.051658 0.000000
vt 0.705236 0.460903 0.000000
vt 0.950946 0.973014 0.000000
vt 0.661965 0.496972 0.000000
vt 0.911279 0.453745 0.000000
vt 0.911279 0.921784 0.000000
vt 0.705171 0.498664 0.000000
vt 0.494418 0.486257 0.000000
vt 0.611465 0.495612 0.000000
vt 0.741672 0.503346 0.000000
vt 0.084624 0.507668 0.000000
vt 0.647835 0.501213 0.000000
vt 0.887240 0.461671 0.000000
vt 0.887240 0.913857 0.000000
vt 0.719174 0.503308 0.000000
vt 0.487358 0.507668 0.000000
vt 0.625346 0.500607 0.000000
vt 0.741661 0.509751 0.000000
vt 0.084624 0.517456 0.000000
vt 0.647663 0.507616 0.000000
vt 0.876249 0.461671 0.000000
vt 0.876249 0.913857 0.000000
vt 0.719163 0.509713 0.000000
vt 0.487358 0.517456 0.000000
vt 0.625173 0.507010 0.000000
vt 0.091683 0.522245 0.000000
vt 0.740199 0.515138 0.000000
vt 0.480299 0.552187 0.000000
vt 0.646066 0.512965 0.000000
vt 0.870873 0.469598 0.000000
vt 0.091683 0.552187 0.000000
vt 0.870873 0.905931 0.000000
vt 0.720606 0.515105 0.000000
#end 110 texture vertices

#begin 64 faces
usemtl scene_material
f 8/8/4 14/14/3 32/32/2 9/9/1 
usemtl scene_material
f 1/1/8 25/25/7 15/15/6 2/2/5 
usemtl scene_material
f 11/11/12 16/16/11 26/26/10 12/12/9 
usemtl scene_material
f 4/4/16 18/18/15 13/13/14 5/5/13 
usemtl scene_material
f 7/7/20 35/35/19 14/14/18 8/8/17 
usemtl scene_material
f 21/21/29 22/22/30 23/23/31 24/24/32 
usemtl scene_material
f 25/25/33 26/26/34 27/27/35 28/28/36 29/29/37 30/30/38 
usemtl scene_material
f 31/31/39 32/32/40 33/33/41 34/34/42 28/28/43 27/27/44 
usemtl scene_material
f 35/35/45 36/36/46 20/20/47 19/19/48 34/34/49 33/33/50 
usemtl scene_material
f 18/18/51 17/17/52 30/30/53 29/29/54 19/19/55 20/20/56 
usemtl scene_material
f 5/5/24 13/13/23 36/36/22 6/6/21 
usemtl scene_material
f 2/2/28 15/15/27 17/17/26 3/3/25 
usemtl scene_material
f 10/10/60 31/31/59 16/16/58 11/11/57 
usemtl scene_material
f 6/6/64 36/36/63 35/35/62 7/7/61 
usemtl scene_material
f 22/22/73 21/21/74 29/29/75 28/28/76 
usemtl scene_material
f 21/21/77 24/24/78 19/19/79 29/29/80 
usemtl scene_material
f 24/24/81 23/23/82 34/34/83 19/19/84 
usemtl scene_material
f 23/23/85 22/22/86 28/28/87 34/34/88 
usemtl scene_material
f 31/31/89 27/27/90 26/26/91 16/16/92 
usemtl scene_material
f 25/25/93 30/30/94 17/17/95 15/15/96 
usemtl scene_material
f 35/35/97 33/33/98 32/32/99 14/14/100 
usemtl scene_material
f 18/18/101 20/20/102 36/36/103 13/13/104 
usemtl scene_material
f 9/9/68 32/32/67 31/31/66 10/10/65 
usemtl scene_material
f 3/3/72 17/17/71 18/18/70 4/4/69 
usemtl scene_material
f 12/12/108 26/26/107 25/25/106 1/1/105 
usemtl scene_material
f 60/60/109 63/63/183 61/61/173 49/49/120 
usemtl scene_material
f 48/48/124 37/37/123 60/60/122 49/49/121 
usemtl scene_material
f 47/47/128 48/48/127 49/49/126 50/50/125 
usemtl scene_material
f 46/46/132 47/47/131 50/50/130 51/51/129 
usemtl scene_material
f 45/45/136 46/46/135 51/51/134 52/52/133 
usemtl scene_material
f 44/44/140 45/45/139 52/52/138 53/53/137 
usemtl scene_material
f 43/43/144 44/44/143 53/53/142 54/54/141 
usemtl scene_material
f 42/42/148 43/43/147 54/54/146 55/55/145 
usemtl scene_material
f 41/41/152 42/42/151 55/55/150 56/56/149 
usemtl scene_material
f 40/40/156 41/41/155 56/56/154 57/57/153 
usemtl scene_material
f 39/39/165 40/40/166 57/57/167 58/58/168 
usemtl scene_material
f 38/38/161 39/39/162 58/58/163 59/59/164 
usemtl scene_material
f 37/37/157 38/38/158 59/59/159 60/60/160 
usemtl scene_material
f 56/56/113 55/55/114 64/64/188 57/57/169 
usemtl scene_material
f 57/57/112 64/64/187 63/63/184 58/58/171 
usemtl scene_material
f 51/51/118 50/50/119 49/49/176 61/61/175 
usemtl scene_material
f 52/52/117 51/51/172 61/61/180 62/62/179 
usemtl scene_material
f 53/53/116 52/52/170 62/62/182 54/54/181 
usemtl scene_material
f 59/59/110 58/58/111 63/63/186 60/60/185 
usemtl scene_material
f 62/62/177 61/61/174 63/63/190 64/64/189 
usemtl scene_material
f 54/54/115 62/62/178 64/64/192 55/55/191 
usemtl scene_material
f 65/65/193 73/85/194 68/74/195 66/69/196 
usemtl scene_material
f 65/66/197 66/68/198 70/78/199 69/76/200 
usemtl scene_material
f 65/67/201 69/75/202 71/81/203 73/86/204 
usemtl scene_material
f 66/70/205 68/73/206 72/84/207 70/79/208 
usemtl scene_material
f 67/72/209 83/105/210 84/108/211 82/103/212 
usemtl scene_material
f 69/77/213 70/80/214 72/83/215 71/82/216 
usemtl scene_material
f 73/86/217 71/81/218 75/89/219 77/94/220 
usemtl scene_material
f 71/82/221 72/83/222 76/91/223 75/90/224 
usemtl scene_material
f 72/84/225 68/73/226 74/87/227 76/92/228 
usemtl scene_material
f 68/74/229 73/85/230 77/93/231 74/88/232 
usemtl scene_material
f 77/94/233 75/89/234 79/97/235 81/102/236 
usemtl scene_material
f 75/90/237 76/91/238 80/99/239 79/98/240 
usemtl scene_material
f 76/92/241 74/87/242 78/95/243 80/100/244 
usemtl scene_material
f 74/88/245 77/93/246 81/101/247 78/96/248 
usemtl scene_material
f 81/102/249 79/97/250 83/106/251 67/71/252 
usemtl scene_material
f 79/98/253 80/99/254 84/109/255 83/107/256 
usemtl scene_material
f 80/100/257 78/95/258 82/104/259 84/110/260 
usemtl scene_material
f 78/96/261 81/101/262 67/72/263 82/103/264 
#end 64 faces
